<svg width="24" height="24" viewBox="0 0 24 24" fill="none" xmlns="http://www.w3.org/2000/svg">
<path d="M17.3768 11.198C17.3677 9.66794 18.075 8.51478 19.5033 7.66449C18.7044 6.54274 17.4959 5.92578 15.9027 5.80687C14.3943 5.69021 12.7439 6.66838 12.1396 6.66838C11.501 6.66838 10.0406 5.84726 8.89156 5.84726C6.52017 5.88315 4 7.70039 4 11.3977C4 12.4903 4.20372 13.6187 4.61116 14.7809C5.15594 16.311 7.11989 20.0598 9.16853 19.9993C10.2398 19.9746 10.9974 19.2544 12.3914 19.2544C13.7442 19.2544 14.4446 19.9993 15.6395 19.9993C17.7064 19.9701 19.4827 16.5622 20 15.0277C17.228 13.7466 17.3768 11.2765 17.3768 11.198ZM14.9711 4.35533C16.1316 3.00474 16.0263 1.7753 15.992 1.33333C14.9665 1.39166 13.7808 2.0176 13.1056 2.78712C12.3617 3.61273 11.9245 4.63352 12.0183 5.78444C13.1262 5.86745 14.1379 5.30881 14.9711 4.35533Z" fill="#D4D4D4"/>
</svg>
