<svg width="15" height="10" viewBox="0 0 15 10" fill="none" xmlns="http://www.w3.org/2000/svg">
<g clip-path="url(#clip0_52_470)">
<mask id="mask0_52_470" style="mask-type:alpha" maskUnits="userSpaceOnUse" x="0" y="0" width="15" height="10">
<path d="M0 0H15V10H0V0Z" fill="white"/>
</mask>
<g mask="url(#mask0_52_470)">
<path fill-rule="evenodd" clip-rule="evenodd" d="M0 0V10H15V0H0Z" fill="#2E42A5"/>
<mask id="mask1_52_470" style="mask-type:alpha" maskUnits="userSpaceOnUse" x="0" y="0" width="15" height="10">
<path fill-rule="evenodd" clip-rule="evenodd" d="M0 0V10H15V0H0Z" fill="white"/>
</mask>
<g mask="url(#mask1_52_470)">
<mask id="mask2_52_470" style="mask-type:alpha" maskUnits="userSpaceOnUse" x="0" y="0" width="15" height="10">
<path d="M0 0H15V10H0V0Z" fill="white"/>
</mask>
<g mask="url(#mask2_52_470)">
<path d="M-1.67017 9.28542L1.63077 10.5267L15.0745 1.34917L16.8159 -0.494993L13.2862 -0.909576L7.8028 3.04501L3.38905 5.71001L-1.67017 9.28542Z" fill="white"/>
<path d="M-1.21875 10.155L0.463594 10.875L16.1906 -0.666229H13.8295L-1.21828 10.1546L-1.21875 10.155Z" fill="#F50100"/>
<path d="M16.6701 9.28542L13.3692 10.5267L-0.0745727 1.34917L-1.81598 -0.494993L1.71371 -0.909576L7.19715 3.04501L11.6109 5.71001L16.6701 9.28542Z" fill="white"/>
<path d="M16.5576 9.90959L14.8758 10.6296L8.1792 5.68793L6.19358 5.13626L-1.98376 -0.488739H0.377798L8.54999 5.00293L10.7208 5.66459L16.5576 9.90959Z" fill="#F50100"/>
<mask id="mask3_52_470" style="mask-type:alpha" maskUnits="userSpaceOnUse" x="-1" y="-1" width="17" height="12">
<path fill-rule="evenodd" clip-rule="evenodd" d="M9.27094 -0.833313H5.72906V3.33335H-0.924377V6.66669H5.72906V10.8334H9.27094V6.66669H15.9506V3.33335H9.27094V-0.833313Z" fill="white"/>
</mask>
<g mask="url(#mask3_52_470)">
<path fill-rule="evenodd" clip-rule="evenodd" d="M9.27094 -0.833313H5.72906V3.33335H-0.924377V6.66669H5.72906V10.8334H9.27094V6.66669H15.9506V3.33335H9.27094V-0.833313Z" fill="#F50100"/>
<path d="M5.72906 -0.833323V-1.66666H4.79156V-0.833323H5.72906ZM9.27094 -0.833323H10.2084V-1.66666H9.27094V-0.833323ZM5.72906 3.33334V4.16668H6.66656V3.33334H5.72906ZM-0.924378 3.33334V2.50001H-1.86188V3.33334H-0.924378ZM-0.924378 6.66668H-1.86188V7.50001H-0.924378V6.66668ZM5.72906 6.66668H6.66656V5.83334H5.72906V6.66668ZM5.72906 10.8333H4.79156V11.6667H5.72906V10.8333ZM9.27094 10.8333V11.6667H10.2084V10.8333H9.27094ZM9.27094 6.66668V5.83334H8.33344V6.66668H9.27094ZM15.9506 6.66668V7.50001H16.8881V6.66668H15.9506ZM15.9506 3.33334H16.8881V2.50001H15.9506V3.33334ZM9.27094 3.33334H8.33344V4.16668H9.27094V3.33334ZM5.72906 1.0252e-05H9.27094V-1.66666H5.72906V1.0252e-05ZM6.66656 3.33334V-0.833323H4.79156V3.33334H6.66656ZM-0.924378 4.16668H5.72906V2.50001H-0.924378V4.16668ZM0.0131226 6.66668V3.33334H-1.86188V6.66668H0.0131226ZM5.72906 5.83334H-0.924378V7.50001H5.72906V5.83334ZM6.66656 10.8333V6.66668H4.79156V10.8333H6.66656ZM9.27094 10H5.72906V11.6667H9.27094V10ZM8.33344 6.66668V10.8333H10.2084V6.66668H8.33344ZM15.9506 5.83334H9.27094V7.50001H15.9506V5.83334ZM15.0131 3.33334V6.66668H16.8881V3.33334H15.0131ZM9.27094 4.16668H15.9506V2.50001H9.27094V4.16668ZM8.33344 -0.833323V3.33334H10.2084V-0.833323H8.33344Z" fill="white"/>
</g>
</g>
</g>
</g>
</g>
<defs>
<clipPath id="clip0_52_470">
<rect width="15" height="10" fill="white"/>
</clipPath>
</defs>
</svg>
