<svg width="24" height="24" viewBox="0 0 24 24" fill="none" xmlns="http://www.w3.org/2000/svg">
<mask id="mask0_52_853" style="mask-type:alpha" maskUnits="userSpaceOnUse" x="0" y="0" width="24" height="24">
<rect width="24" height="24" fill="#D9D9D9"/>
</mask>
<g mask="url(#mask0_52_853)">
<path d="M5.39998 21C4.89998 21 4.47498 20.825 4.12498 20.475C3.77498 20.125 3.59998 19.7 3.59998 19.2V5.3C3.59998 4.8 3.77498 4.375 4.12498 4.025C4.47498 3.675 4.89998 3.5 5.39998 3.5H12.125V5H5.39998C5.33331 5 5.26664 5.03333 5.19998 5.1C5.13331 5.16667 5.09998 5.23333 5.09998 5.3V19.2C5.09998 19.2667 5.13331 19.3333 5.19998 19.4C5.26664 19.4667 5.33331 19.5 5.39998 19.5H12.125V21H5.39998ZM16.125 16.525L15.1 15.425L17.525 13H9.12498V11.5H17.525L15.1 9.075L16.125 7.975L20.4 12.25L16.125 16.525Z" fill="#F5F5F5"/>
</g>
</svg>
